<?xml version="1.0" encoding="UTF-8" standalone="no"?>
<!DOCTYPE svg PUBLIC "-//W3C//DTD SVG 1.1//EN" "http://www.w3.org/Graphics/SVG/1.1/DTD/svg11.dtd">
<svg width="100%" height="100%" viewBox="0 0 300 300" version="1.1" xmlns="http://www.w3.org/2000/svg" xmlns:xlink="http://www.w3.org/1999/xlink" xml:space="preserve" xmlns:serif="http://www.serif.com/" style="fill-rule:evenodd;clip-rule:evenodd;stroke-linejoin:round;stroke-miterlimit:2;">
    <g transform="matrix(3.17376,0,0,3.17376,67.7397,102.333)">
        <g id="e4dfbed1-cd8e-40d7-a540-d5d85db4022c">
            <path d="M4.48,3.64C6.133,3.64 7.323,4.293 8.05,5.6L7.08,6.38C6.8,5.767 6.467,5.33 6.08,5.07C5.693,4.817 5.163,4.69 4.49,4.69C3.783,4.69 3.227,4.837 2.82,5.13C2.413,5.423 2.21,5.8 2.21,6.26C2.21,6.56 2.29,6.807 2.45,7C2.61,7.193 2.873,7.363 3.24,7.51C3.607,7.657 4.117,7.787 4.77,7.9C5.997,8.1 6.863,8.407 7.37,8.82C7.877,9.233 8.13,9.803 8.13,10.53C8.13,11.05 7.983,11.51 7.69,11.91C7.397,12.303 6.98,12.61 6.44,12.83C5.9,13.05 5.273,13.16 4.56,13.16C3.627,13.16 2.833,12.977 2.18,12.61C1.52,12.25 1.017,11.767 0.67,11.16L1.64,10.37C1.893,10.923 2.263,11.35 2.75,11.65C3.243,11.957 3.857,12.11 4.59,12.11C5.317,12.11 5.897,11.977 6.33,11.71C6.757,11.443 6.97,11.067 6.97,10.58C6.97,10.173 6.783,9.847 6.41,9.6C6.037,9.36 5.373,9.157 4.42,8.99C3.193,8.777 2.323,8.467 1.81,8.06C1.297,7.66 1.04,7.1 1.04,6.38C1.04,5.887 1.18,5.43 1.46,5.01C1.74,4.59 2.14,4.257 2.66,4.01C3.18,3.763 3.787,3.64 4.48,3.64ZM18.34,5.88C18.807,5.88 19.243,5.977 19.65,6.17C20.057,6.357 20.387,6.653 20.64,7.06C20.887,7.46 21.01,7.953 21.01,8.54L21.01,13.02L19.89,13.02L19.89,8.65C19.89,8.043 19.74,7.593 19.44,7.3C19.133,7.007 18.733,6.86 18.24,6.86C17.867,6.86 17.523,6.95 17.21,7.13C16.897,7.317 16.647,7.583 16.46,7.93C16.267,8.283 16.17,8.7 16.17,9.18L16.17,13.02L15.05,13.02L15.05,8.65C15.05,8.043 14.897,7.593 14.59,7.3C14.29,7.007 13.893,6.86 13.4,6.86C13.06,6.86 12.733,6.947 12.42,7.12C12.1,7.293 11.837,7.56 11.63,7.92C11.43,8.287 11.33,8.74 11.33,9.28L11.33,13.02L10.21,13.02L10.21,6.02L11.19,6.02L11.26,7.11C11.5,6.703 11.817,6.397 12.21,6.19C12.61,5.983 13.04,5.88 13.5,5.88C14.013,5.88 14.487,5.997 14.92,6.23C15.353,6.463 15.68,6.803 15.9,7.25C16.107,6.803 16.443,6.463 16.91,6.23C17.377,5.997 17.853,5.88 18.34,5.88ZM29.29,12.21C29.477,12.21 29.663,12.187 29.85,12.14L29.78,13.02C29.52,13.113 29.24,13.16 28.94,13.16C28.573,13.16 28.287,13.08 28.08,12.92C27.867,12.76 27.733,12.493 27.68,12.12C27.467,12.447 27.15,12.703 26.73,12.89C26.317,13.07 25.88,13.16 25.42,13.16C24.733,13.16 24.167,13 23.72,12.68C23.267,12.353 23.04,11.887 23.04,11.28C23.04,10.753 23.273,10.293 23.74,9.9C24.207,9.513 24.883,9.247 25.77,9.1L27.64,8.79L27.64,8.4C27.64,7.933 27.493,7.56 27.2,7.28C26.913,7 26.513,6.86 26,6.86C25.533,6.86 25.13,6.973 24.79,7.2C24.45,7.42 24.187,7.75 24,8.19L23.17,7.59C23.357,7.063 23.703,6.647 24.21,6.34C24.723,6.033 25.32,5.88 26,5.88C26.827,5.88 27.493,6.08 28,6.48C28.507,6.88 28.76,7.473 28.76,8.26L28.76,11.7C28.76,11.873 28.8,12 28.88,12.08C28.967,12.167 29.103,12.21 29.29,12.21ZM25.48,12.18C26.067,12.18 26.573,12.04 27,11.76C27.427,11.48 27.64,11.117 27.64,10.67L27.64,9.7L26.07,10C25.443,10.107 24.977,10.267 24.67,10.48C24.363,10.687 24.21,10.953 24.21,11.28C24.21,11.573 24.32,11.797 24.54,11.95C24.767,12.103 25.08,12.18 25.48,12.18ZM34.78,5.88C35.113,5.88 35.37,5.927 35.55,6.02L35.32,7.11C35.1,6.99 34.807,6.93 34.44,6.93C34.14,6.93 33.85,7.017 33.57,7.19C33.283,7.363 33.05,7.623 32.87,7.97C32.683,8.323 32.59,8.747 32.59,9.24L32.59,13.02L31.47,13.02L31.47,6.02L32.38,6.02L32.54,7.17C32.927,6.31 33.673,5.88 34.78,5.88ZM40.66,11.59L41.05,12.53C40.583,12.95 39.98,13.16 39.24,13.16C38.673,13.16 38.21,13.007 37.85,12.7C37.49,12.393 37.307,11.92 37.3,11.28L37.3,6.99L35.9,6.99L35.9,6.02L37.3,6.02L37.3,4.34L38.42,4.03L38.42,6.02L41.01,6.02L41.01,6.99L38.42,6.99L38.42,11.09C38.42,11.423 38.513,11.677 38.7,11.85C38.893,12.023 39.15,12.11 39.47,12.11C39.917,12.11 40.313,11.937 40.66,11.59ZM48.97,3.78L50.09,3.78L50.09,13.02L48.97,13.02L48.97,8.86L43.96,8.86L43.96,13.02L42.84,13.02L42.84,3.78L43.96,3.78L43.96,7.81L48.97,7.81L48.97,3.78ZM57.78,6.02L58.9,6.02L58.9,13.02L57.92,13.02L57.85,11.96C57.383,12.76 56.547,13.16 55.34,13.16C54.587,13.16 53.97,12.95 53.49,12.53C53.01,12.11 52.77,11.467 52.77,10.6L52.77,6.02L53.89,6.02L53.89,10.3C53.89,10.987 54.03,11.47 54.31,11.75C54.59,12.037 55,12.18 55.54,12.18C56.18,12.18 56.713,11.983 57.14,11.59C57.567,11.197 57.78,10.61 57.78,9.83L57.78,6.02ZM64.95,5.88C65.93,5.88 66.707,6.203 67.28,6.85C67.853,7.503 68.14,8.393 68.14,9.52C68.14,10.647 67.853,11.537 67.28,12.19C66.707,12.837 65.93,13.16 64.95,13.16C64.403,13.16 63.92,13.037 63.5,12.79C63.073,12.543 62.757,12.213 62.55,11.8L62.48,13.02L61.5,13.02L61.5,2.8L62.62,2.8L62.62,7.11C62.847,6.737 63.163,6.44 63.57,6.22C63.977,5.993 64.437,5.88 64.95,5.88ZM64.82,12.18C65.5,12.18 66.037,11.94 66.43,11.46C66.823,10.98 67.02,10.333 67.02,9.52C67.02,8.707 66.823,8.06 66.43,7.58C66.037,7.1 65.5,6.86 64.82,6.86C64.147,6.86 63.613,7.093 63.22,7.56C62.82,8.027 62.62,8.653 62.62,9.44L62.62,9.6C62.62,10.387 62.82,11.013 63.22,11.48C63.613,11.947 64.147,12.18 64.82,12.18Z" style="fill-rule:nonzero;"/>
        </g>
    </g>
    <g transform="matrix(1.76142,0,0,1.76142,0.477681,99.4771)">
        <g id="_412053a1-26b0-48cc-905f-351e517a796b" serif:id="412053a1-26b0-48cc-905f-351e517a796b">
            <g>
                <path d="M6,13C5.451,13 5,13.451 5,14L5,27C5.002,28.645 6.355,29.998 8,30L24,30C25.645,29.998 26.998,28.645 27,27L27,14C27,13.451 26.549,13 26,13C25.451,13 25,13.451 25,14L25,27C24.999,27.548 24.548,27.999 24,28L8,28C7.452,27.999 7.001,27.548 7,27L7,14C7,13.451 6.549,13 6,13Z" style="fill:url(#_Linear1);fill-rule:nonzero;"/>
                <path d="M3.57,12.822L16,4.216L28.43,12.822C28.597,12.938 28.796,13 29,13C29.549,13 30,12.549 30,12C30,11.672 29.839,11.365 29.57,11.178L16.57,2.178C16.228,1.941 15.772,1.941 15.43,2.178L2.43,11.178C2.161,11.365 2,11.672 2,12C2,12.549 2.451,13 3,13C3.204,13 3.403,12.938 3.57,12.822ZM13.874,22.892C13.697,23.078 13.598,23.325 13.598,23.582C13.598,24.13 14.05,24.582 14.598,24.582C14.864,24.582 15.118,24.476 15.306,24.288C15.692,23.918 16.308,23.918 16.694,24.288C16.882,24.476 17.136,24.582 17.402,24.582C17.95,24.582 18.402,24.13 18.402,23.582C18.402,23.325 18.303,23.078 18.126,22.892C16.949,21.75 15.051,21.75 13.874,22.892Z" style="fill:url(#_Linear2);fill-rule:nonzero;"/>
                <path d="M19.54,22.46C20.089,22.46 20.54,22.009 20.54,21.46C20.54,21.193 20.433,20.937 20.243,20.749C17.91,18.433 14.09,18.433 11.757,20.749C11.56,20.938 11.448,21.199 11.448,21.472C11.448,22.02 11.9,22.472 12.448,22.472C12.717,22.472 12.975,22.363 13.163,22.171C14.744,20.67 17.256,20.67 18.837,22.171C19.024,22.356 19.277,22.46 19.54,22.46Z" style="fill:url(#_Linear3);fill-rule:nonzero;"/>
                <path d="M21.66,20.34C21.66,20.34 21.661,20.34 21.661,20.34C22.209,20.34 22.661,19.889 22.661,19.34C22.661,19.073 22.554,18.818 22.365,18.63C18.87,15.145 13.13,15.145 9.635,18.63C9.446,18.818 9.339,19.074 9.339,19.34C9.339,19.889 9.791,20.341 10.34,20.341C10.604,20.341 10.858,20.236 11.045,20.05C13.765,17.336 18.235,17.336 20.955,20.05C21.142,20.236 21.396,20.341 21.66,20.34Z" style="fill:url(#_Linear4);fill-rule:nonzero;"/>
            </g>
        </g>
    </g>
    <defs>
        <linearGradient id="_Linear1" x1="0" y1="0" x2="1" y2="0" gradientUnits="userSpaceOnUse" gradientTransform="matrix(19.9388,9.2976,-9.2976,19.9388,-0.962498,13.8951)"><stop offset="0" style="stop-color:rgb(78,26,112);stop-opacity:1"/><stop offset="1" style="stop-color:rgb(43,76,242);stop-opacity:1"/></linearGradient>
        <linearGradient id="_Linear2" x1="0" y1="0" x2="1" y2="0" gradientUnits="userSpaceOnUse" gradientTransform="matrix(25.3771,11.8336,-11.8336,25.3771,0.967093,2.65777)"><stop offset="0" style="stop-color:rgb(78,26,112);stop-opacity:1"/><stop offset="1" style="stop-color:rgb(43,76,242);stop-opacity:1"/></linearGradient>
        <linearGradient id="_Linear3" x1="0" y1="0" x2="1" y2="0" gradientUnits="userSpaceOnUse" gradientTransform="matrix(8.23969,3.84223,-3.84223,8.23969,2.34095,22.0688)"><stop offset="0" style="stop-color:rgb(78,26,112);stop-opacity:1"/><stop offset="1" style="stop-color:rgb(43,76,242);stop-opacity:1"/></linearGradient>
        <linearGradient id="_Linear4" x1="0" y1="0" x2="1" y2="0" gradientUnits="userSpaceOnUse" gradientTransform="matrix(12.0733,5.62985,-5.62985,12.0733,1.69549,18.463)"><stop offset="0" style="stop-color:rgb(78,26,112);stop-opacity:1"/><stop offset="1" style="stop-color:rgb(43,76,242);stop-opacity:1"/></linearGradient>
    </defs>
</svg>
